0
SECTION
2
HEADER
9
$INSUNITS
70
4
9
$ACADVER
1
AC1014
9
$HANDSEED
5
FFFF
0
ENDSEC
0
SECTION
2
TABLES
0
TABLE
2
VPORT
5
8
100
AcDbSymbolTable
0
ENDTAB
0
TABLE
2
LTYPE
5
5
100
AcDbSymbolTable
0
LTYPE
5
14
100
AcDbSymbolTableRecord
100
AcDbLinetypeTableRecord
2
BYBLOCK
70
0
0
LTYPE
5
15
100
AcDbSymbolTableRecord
100
AcDbLinetypeTableRecord
2
BYLAYER
70
0
0
ENDTAB
0
TABLE
2
LAYER
5
2
100
AcDbSymbolTable
70
2
0
LAYER
5
50
100
AcDbSymbolTableRecord
100
AcDbLayerTableRecord
2
0
70
0
6
CONTINUOUS
0
ENDTAB
0
TABLE
2
STYLE
5
3
100
AcDbSymbolTable
70
1
0
STYLE
5
11
100
AcDbSymbolTableRecord
100
AcDbTextStyleTableRecord
2
STANDARD
70
0
0
ENDTAB
0
TABLE
2
VIEW
5
6
100
AcDbSymbolTable
70
0
0
ENDTAB
0
TABLE
2
UCS
5
7
100
AcDbSymbolTable
70
0
0
ENDTAB
0
TABLE
2
APPID
5
9
100
AcDbSymbolTable
70
2
0
APPID
5
12
100
AcDbSymbolTableRecord
100
AcDbRegAppTableRecord
2
ACAD
70
0
0
ENDTAB
0
TABLE
2
DIMSTYLE
5
A
100
AcDbSymbolTable
70
1
0
ENDTAB
0
TABLE
2
BLOCK_RECORD
5
1
100
AcDbSymbolTable
70
1
0
BLOCK_RECORD
5
1F
100
AcDbSymbolTableRecord
100
AcDbBlockTableRecord
2
*MODEL_SPACE
0
BLOCK_RECORD
5
1B
100
AcDbSymbolTableRecord
100
AcDbBlockTableRecord
2
*PAPER_SPACE
0
ENDTAB
0
ENDSEC
0
SECTION
2
BLOCKS
0
BLOCK
5
20
100
AcDbEntity
100
AcDbBlockBegin
2
*MODEL_SPACE
0
ENDBLK
5
21
100
AcDbEntity
100
AcDbBlockEnd
0
BLOCK
5
1C
100
AcDbEntity
100
AcDbBlockBegin
2
*PAPER_SPACE
0
ENDBLK
5
1D
100
AcDbEntity
100
AcDbBlockEnd
0
ENDSEC
0
SECTION
2
ENTITIES
0
LINE
5
100
100
AcDbEntity
8
0
100
AcDbLine
10
290.00000000000011
20
-786.49999999999989
30
0
11
-290.00000000000006
21
-786.5
31
0
0
LINE
5
101
100
AcDbEntity
8
0
100
AcDbLine
10
299.99999999999989
20
203.5
30
0
11
300.00000000000011
21
-776.5
31
0
0
LINE
5
102
100
AcDbEntity
8
0
100
AcDbLine
10
-290.00000000000011
20
213.5
30
0
11
289.99999999999989
21
213.5
31
0
0
LINE
5
103
100
AcDbEntity
8
0
100
AcDbLine
10
-300.00000000000011
20
-776.49999999999989
30
0
11
-300.00000000000011
21
203.4999999999998
31
0
0
CIRCLE
5
104
100
AcDbEntity
8
0
100
AcDbCircle
10
-285.00000000000011
20
113.50000000000009
30
0
40
4.4999999999999929
210
0
220
-0
230
1
0
CIRCLE
5
105
100
AcDbEntity
8
0
100
AcDbCircle
10
-285.00000000000011
20
13.500000000000085
30
0
40
4.4999999999999929
210
0
220
-0
230
1
0
CIRCLE
5
106
100
AcDbEntity
8
0
100
AcDbCircle
10
-285.00000000000011
20
-86.499999999999915
30
0
40
4.4999999999999929
210
0
220
-0
230
1
0
CIRCLE
5
107
100
AcDbEntity
8
0
100
AcDbCircle
10
-285.00000000000011
20
-186.49999999999991
30
0
40
4.4999999999999929
210
0
220
-0
230
1
0
CIRCLE
5
108
100
AcDbEntity
8
0
100
AcDbCircle
10
-285.00000000000011
20
-286.49999999999989
30
0
40
4.4999999999999929
210
0
220
-0
230
1
0
CIRCLE
5
109
100
AcDbEntity
8
0
100
AcDbCircle
10
-200.00000000000011
20
198.50000000000009
30
0
40
4.4999999999999929
210
0
220
-0
230
1
0
CIRCLE
5
110
100
AcDbEntity
8
0
100
AcDbCircle
10
-100.00000000000011
20
198.50000000000009
30
0
40
4.4999999999999929
210
0
220
-0
230
1
0
CIRCLE
5
111
100
AcDbEntity
8
0
100
AcDbCircle
10
-1.0658141036401503e-13
20
198.50000000000009
30
0
40
4.4999999999999929
210
0
220
-0
230
1
0
CIRCLE
5
112
100
AcDbEntity
8
0
100
AcDbCircle
10
99.999999999999886
20
198.50000000000009
30
0
40
4.4999999999999929
210
0
220
-0
230
1
0
CIRCLE
5
113
100
AcDbEntity
8
0
100
AcDbCircle
10
199.99999999999989
20
198.50000000000009
30
0
40
4.4999999999999929
210
0
220
-0
230
1
0
CIRCLE
5
114
100
AcDbEntity
8
0
100
AcDbCircle
10
284.99999999999989
20
113.50000000000009
30
0
40
4.4999999999999929
210
0
220
-0
230
1
0
CIRCLE
5
115
100
AcDbEntity
8
0
100
AcDbCircle
10
284.99999999999989
20
13.500000000000085
30
0
40
4.4999999999999929
210
0
220
-0
230
1
0
CIRCLE
5
116
100
AcDbEntity
8
0
100
AcDbCircle
10
284.99999999999989
20
-86.499999999999915
30
0
40
4.4999999999999929
210
0
220
-0
230
1
0
CIRCLE
5
117
100
AcDbEntity
8
0
100
AcDbCircle
10
284.99999999999989
20
-186.49999999999991
30
0
40
4.4999999999999929
210
0
220
-0
230
1
0
CIRCLE
5
118
100
AcDbEntity
8
0
100
AcDbCircle
10
284.99999999999989
20
-286.49999999999989
30
0
40
4.4999999999999929
210
0
220
-0
230
1
0
CIRCLE
5
119
100
AcDbEntity
8
0
100
AcDbCircle
10
35.784057073157086
20
-86.381428903353296
30
0
40
4.5000000000000027
210
0
220
-0
230
1
0
CIRCLE
5
120
100
AcDbEntity
8
0
100
AcDbCircle
10
86.358426446480237
20
-35.839533781675627
30
0
40
4.4999999999999991
210
0
220
-0
230
1
0
CIRCLE
5
121
100
AcDbEntity
8
0
100
AcDbCircle
10
86.432539524111149
20
35.660427807486641
30
0
40
4.4999999999999991
210
0
220
-0
230
1
0
CIRCLE
5
122
100
AcDbEntity
8
0
100
AcDbCircle
10
0
20
93.5
30
0
40
4.5
210
0
220
-0
230
1
0
CIRCLE
5
123
100
AcDbEntity
8
0
100
AcDbCircle
10
-86.432539524111149
20
35.660427807486641
30
0
40
4.4999999999999991
210
0
220
-0
230
1
0
CIRCLE
5
124
100
AcDbEntity
8
0
100
AcDbCircle
10
-86.358426446478674
20
-35.839533781674959
30
0
40
4.4999999999999991
210
0
220
-0
230
1
0
CIRCLE
5
125
100
AcDbEntity
8
0
100
AcDbCircle
10
-35.784057073156973
20
-86.381428903353012
30
0
40
4.5000000000000027
210
0
220
-0
230
1
0
CIRCLE
5
126
100
AcDbEntity
8
0
100
AcDbCircle
10
-285.00000000000011
20
-386.49999999999989
30
0
40
4.4999999999999929
210
0
220
-0
230
1
0
CIRCLE
5
127
100
AcDbEntity
8
0
100
AcDbCircle
10
-285.00000000000011
20
-486.49999999999989
30
0
40
4.4999999999999929
210
0
220
-0
230
1
0
CIRCLE
5
128
100
AcDbEntity
8
0
100
AcDbCircle
10
-285.00000000000011
20
-586.49999999999989
30
0
40
4.4999999999999929
210
0
220
-0
230
1
0
CIRCLE
5
129
100
AcDbEntity
8
0
100
AcDbCircle
10
-285.00000000000011
20
-686.49999999999989
30
0
40
4.4999999999999929
210
0
220
-0
230
1
0
CIRCLE
5
130
100
AcDbEntity
8
0
100
AcDbCircle
10
-200.00000000000011
20
-771.49999999999989
30
0
40
4.4999999999999929
210
0
220
-0
230
1
0
CIRCLE
5
131
100
AcDbEntity
8
0
100
AcDbCircle
10
-100.00000000000011
20
-771.49999999999989
30
0
40
4.4999999999999929
210
0
220
-0
230
1
0
CIRCLE
5
132
100
AcDbEntity
8
0
100
AcDbCircle
10
-1.0658141036401503e-13
20
-771.49999999999989
30
0
40
4.4999999999999929
210
0
220
-0
230
1
0
CIRCLE
5
133
100
AcDbEntity
8
0
100
AcDbCircle
10
99.999999999999886
20
-771.49999999999989
30
0
40
4.4999999999999929
210
0
220
-0
230
1
0
CIRCLE
5
134
100
AcDbEntity
8
0
100
AcDbCircle
10
199.99999999999989
20
-771.49999999999989
30
0
40
4.4999999999999929
210
0
220
-0
230
1
0
CIRCLE
5
135
100
AcDbEntity
8
0
100
AcDbCircle
10
284.99999999999989
20
-686.49999999999989
30
0
40
4.4999999999999929
210
0
220
-0
230
1
0
CIRCLE
5
136
100
AcDbEntity
8
0
100
AcDbCircle
10
284.99999999999989
20
-586.49999999999989
30
0
40
4.4999999999999929
210
0
220
-0
230
1
0
CIRCLE
5
137
100
AcDbEntity
8
0
100
AcDbCircle
10
284.99999999999989
20
-486.49999999999989
30
0
40
4.4999999999999929
210
0
220
-0
230
1
0
CIRCLE
5
138
100
AcDbEntity
8
0
100
AcDbCircle
10
284.99999999999989
20
-386.49999999999989
30
0
40
4.4999999999999929
210
0
220
-0
230
1
0
CIRCLE
5
139
100
AcDbEntity
8
0
100
AcDbCircle
10
0
20
-546.79999999999995
30
0
40
4.4999999999999423
210
0
220
-0
230
1
0
CIRCLE
5
140
100
AcDbEntity
8
0
100
AcDbCircle
10
76.199999999999989
20
-622.99999999999989
30
0
40
4.5000000000000089
210
0
220
-0
230
1
0
CIRCLE
5
141
100
AcDbEntity
8
0
100
AcDbCircle
10
0
20
-699.19999999999982
30
0
40
4.4999999999999423
210
0
220
-0
230
1
0
CIRCLE
5
142
100
AcDbEntity
8
0
100
AcDbCircle
10
-76.199999999999989
20
-622.99999999999989
30
0
40
4.5000000000000089
210
0
220
-0
230
1
0
ARC
5
143
100
AcDbEntity
8
0
100
AcDbCircle
10
-57.499999999999943
20
128.50000000000003
30
0
40
5.0000000000000089
210
0
220
0
230
1
100
AcDbArc
50
180
51
269.99999999999972
0
LINE
5
144
100
AcDbEntity
8
0
100
AcDbLine
10
-62.499999999999957
20
128.5
30
0
11
-62.500000000000391
21
163.49999999999983
31
0
0
ARC
5
145
100
AcDbEntity
8
0
100
AcDbCircle
10
-57.500000000000412
20
163.49999999999983
30
0
40
5
210
0
220
-0
230
1
100
AcDbArc
50
90
51
180
0
LINE
5
146
100
AcDbEntity
8
0
100
AcDbLine
10
-57.500000000000412
20
168.49999999999983
30
0
11
57.499999999999588
21
168.49999999999989
31
0
0
ARC
5
147
100
AcDbEntity
8
0
100
AcDbCircle
10
57.499999999999012
20
163.49999999999983
30
0
40
5.0000000000000089
210
0
220
-0
230
1
100
AcDbArc
50
0
51
89.999999999993491
0
LINE
5
148
100
AcDbEntity
8
0
100
AcDbLine
10
62.499999999999019
20
163.49999999999983
30
0
11
62.500000000000028
21
128.5
31
0
0
ARC
5
149
100
AcDbEntity
8
0
100
AcDbCircle
10
57.500000000000028
20
128.5
30
0
40
5
210
-0
220
0
230
1
100
AcDbArc
50
-89.999999999999901
51
0
0
LINE
5
150
100
AcDbEntity
8
0
100
AcDbLine
10
57.500000000000036
20
123.50000000000001
30
0
11
-57.499999999999964
21
123.50000000000001
31
0
0
ARC
5
151
100
AcDbEntity
8
0
100
AcDbCircle
10
-290.00000000000011
20
203.5
30
0
40
10
210
0
220
-0
230
1
100
AcDbArc
50
90
51
180
0
ARC
5
152
100
AcDbEntity
8
0
100
AcDbCircle
10
289.99999999999989
20
203.5
30
0
40
10.000000000000036
210
0
220
0
230
1
100
AcDbArc
50
0
51
90
0
ARC
5
153
100
AcDbEntity
8
0
100
AcDbCircle
10
290.00000000000017
20
-776.5
30
0
40
9.9999999999998579
210
0
220
0
230
1
100
AcDbArc
50
-90.000000000000313
51
0
0
ARC
5
154
100
AcDbEntity
8
0
100
AcDbCircle
10
-289.99999999999989
20
-776.49999999999989
30
0
40
10.000000000000213
210
0
220
0
230
1
100
AcDbArc
50
180
51
269.99999999999903
0
ENDSEC
0
SECTION
2
OBJECTS
0
DICTIONARY
5
C
100
AcDbDictionary
3
ACAD_GROUP
350
D
3
ACAD_MLINESTYLE
350
17
0
DICTIONARY
5
D
100
AcDbDictionary
0
DICTIONARY
5
1A
330
C
100
AcDbDictionary
0
DICTIONARY
5
17
100
AcDbDictionary
0
ENDSEC
0
EOF
